<svg width="46" height="45" viewBox="0 0 46 45" fill="none" xmlns="http://www.w3.org/2000/svg">
<path d="M6.5986 37.6493C4.75714 33.0941 3.43851 28.3374 2.97327 23.4312C2.7011 20.5611 2.01029 17.9634 2.01029 15.076C2.01029 11.2491 1.65843 8.95322 5.06917 6.80571C7.43176 5.31815 10.5191 4.53722 13.2262 4.00175C16.3213 3.38952 19.4137 2.87455 22.5585 2.59976C26.3557 2.26797 30.1709 2.38422 33.9585 2.01914C37.437 1.68387 39.4395 5.82771 40.6994 8.53341C42.9913 13.4554 43.6371 18.7498 43.829 24.1252C43.9476 27.4458 44.0698 30.7384 44.0698 34.0665C44.0698 36.5343 42.9184 38.8225 40.4728 39.816C37.1164 41.1796 33.7876 41.4838 30.2341 41.8836C25.7358 42.3897 20.8015 43.4962 16.285 42.4926C14.1324 42.0142 12.0085 40.9853 9.89822 40.3259C8.82048 39.9891 7.61228 40.0538 6.5986 39.547C4.88994 38.6926 3.73644 35.1876 4.81426 33.5708" stroke="#EF6F0B" stroke-width="3" stroke-linecap="round"/>
<path d="M17.8145 23.1197C16.2101 23.1197 13.9031 23.1688 13.2828 24.9607C12.7199 26.5868 13.1884 29.4942 13.736 31.0218C14.5407 33.2664 16.5562 34.4723 18.8341 34.7887C21.6307 35.1771 26.0096 35.9671 28.4073 34.1373C30.6239 32.4456 30.4753 29.8648 29.7384 27.4531C29.364 26.2276 27.2839 25.0074 26.2264 24.4509C23.5842 23.0602 20.1989 23.3746 17.3047 23.3746" stroke="#EF6F0B" stroke-width="3" stroke-linecap="round"/>
<path d="M30.3049 12.6686C29.3918 13.2594 27.5545 17.6674 29.5402 17.7667C31.1809 17.8487 32.8367 17.0223 33.6045 15.4867C33.9321 14.8315 35.127 13.1913 33.732 12.9376C32.3721 12.6904 30.394 12.5498 29.5402 13.6882" stroke="#EF6F0B" stroke-width="3" stroke-linecap="round"/>
</svg>
