<svg width="44" height="38" viewBox="0 0 44 38" fill="none" xmlns="http://www.w3.org/2000/svg">
<path d="M3.52944 13.7232C3.52944 19.9219 1.70222 26.9731 4.86061 32.7845C5.45995 33.8873 5.70369 34.3569 6.84321 34.8804C8.03056 35.426 9.34077 35.4298 10.6243 35.5177C13.3781 35.7063 16.1498 35.6656 18.9088 35.6451C21.5291 35.6257 24.1233 35.1615 26.6692 34.5689C29.4103 33.9309 32.4413 33.7623 35.0811 32.7845C38.2496 31.611 40.1658 29.96 41.1139 26.7093C42.7429 21.1241 39.4771 15.0581 37.1629 10.1404C36.3424 8.39691 35.3605 6.85504 34.2456 5.31133C32.5341 2.94154 27.7824 2.18676 25.1681 2.02588C21.7809 1.81743 18.6882 2.90287 15.5383 4.0368C12.8429 5.00717 10.0553 5.9834 7.48048 7.22313C4.9627 8.43539 3.16022 10.1283 2 12.4487" stroke="#EF6F0B" stroke-width="3" stroke-linecap="round"/>
<path d="M14.4905 18.0566C15.3742 20.1777 16.2748 23.1081 16.2748 25.4489" stroke="#EF6F0B" stroke-width="3" stroke-linecap="round"/>
<path d="M14.4905 15.5076C17.1268 16.7684 19.8154 17.2695 22.7324 17.2919C23.8537 17.3005 25.047 17.4001 26.1595 17.2353C26.5375 17.1793 24.9753 19.4071 24.8283 19.5861C23.1768 21.5982 21.4326 23.4764 19.277 24.9391C18.6808 25.3437 18.0393 25.9587 17.2944 25.9587" stroke="#EF6F0B" stroke-width="3" stroke-linecap="round"/>
</svg>
