<svg width="49" height="39" viewBox="0 0 49 39" fill="none" xmlns="http://www.w3.org/2000/svg">
<path d="M2.31348 27.672C3.19115 27.7695 7.81348 38.172 21.3135 37.172C24.6452 37.3571 32.0218 38.2454 36.8135 34.672C40.2447 33.5691 42.424 29.3562 43.8046 25.9045C44.2458 24.8017 44.9698 23.4404 45.065 22.2509C45.1822 20.7856 45.0791 19.2733 45.0791 17.8042C45.0791 16.2748 45.0791 14.7453 45.0791 13.2159" stroke="#EF6F0B" stroke-width="3" stroke-linecap="round"/>
<path d="M44.3144 12.7061C44.7762 10.8588 46.6445 9.51736 47.1183 7.62213C47.481 6.17137 47.8401 6.43849 46.3394 7.3389C44.8817 8.21354 41.389 7.78198 39.981 6.84325" stroke="#EF6F0B" stroke-width="3" stroke-linecap="round"/>
<path d="M38.4516 6.3334C36.5976 2.81079 30.3827 1.38262 27.0091 3.52943C24.0213 5.43081 23.1572 8.63893 23.1572 11.9413" stroke="#EF6F0B" stroke-width="3" stroke-linecap="round"/>
<path d="M22.3924 13.4708C18.7348 13.4708 16.1658 11.2231 13.5273 8.88246C11.6928 7.25504 9.1545 4.34583 8.37256 2" stroke="#EF6F0B" stroke-width="3" stroke-linecap="round"/>
<path d="M8.37275 2.76477C8.37275 5.0556 7.68276 8.47234 9.13747 10.412" stroke="#EF6F0B" stroke-width="3" stroke-linecap="round"/>
<path d="M9.64724 11.6865C8.22364 11.4153 7.49723 10.8877 6.22017 10.4119C5.52633 10.1534 4.63366 10.0435 4.03931 9.64722" stroke="#EF6F0B" stroke-width="3" stroke-linecap="round"/>
<path d="M2 10.157C2.72745 14.3601 5.75245 19.2342 8.75501 22.2368C9.55341 23.0352 10.4431 24.3199 11.4315 24.8141C12.3211 25.2589 12.7555 26.1476 13.7257 26.471" stroke="#EF6F0B" stroke-width="3" stroke-linecap="round"/>
<path d="M12.9609 27.4906C9.21078 27.8316 6.26526 28.1075 2.50977 26.9808" stroke="#EF6F0B" stroke-width="3" stroke-linecap="round"/>
</svg>
